<svg width="171" height="32" viewBox="0 0 171 32" fill="none" xmlns="http://www.w3.org/2000/svg">
<path d="M37.2205 24V13.12H39.6805V15.26L39.4805 14.88C39.7338 14.2267 40.1472 13.7333 40.7205 13.4C41.3072 13.0533 41.9872 12.88 42.7605 12.88C43.5605 12.88 44.2672 13.0533 44.8805 13.4C45.5072 13.7467 45.9938 14.2333 46.3405 14.86C46.6872 15.4733 46.8605 16.1867 46.8605 17V24H44.2405V17.62C44.2405 17.14 44.1472 16.7267 43.9605 16.38C43.7738 16.0333 43.5138 15.7667 43.1805 15.58C42.8605 15.38 42.4805 15.28 42.0405 15.28C41.6138 15.28 41.2338 15.38 40.9005 15.58C40.5672 15.7667 40.3072 16.0333 40.1205 16.38C39.9338 16.7267 39.8405 17.14 39.8405 17.62V24H37.2205ZM54.236 24.24C53.116 24.24 52.136 23.9867 51.296 23.48C50.456 22.9733 49.8026 22.2867 49.336 21.42C48.8693 20.5533 48.636 19.5933 48.636 18.54C48.636 17.4467 48.8693 16.48 49.336 15.64C49.816 14.7867 50.4626 14.1133 51.276 13.62C52.1026 13.1267 53.0226 12.88 54.036 12.88C54.8893 12.88 55.636 13.02 56.276 13.3C56.9293 13.58 57.4826 13.9667 57.936 14.46C58.3893 14.9533 58.736 15.52 58.976 16.16C59.216 16.7867 59.336 17.4667 59.336 18.2C59.336 18.3867 59.3226 18.58 59.296 18.78C59.2826 18.98 59.2493 19.1533 59.196 19.3H50.796V17.3H57.716L56.476 18.24C56.596 17.6267 56.5626 17.08 56.376 16.6C56.2026 16.12 55.9093 15.74 55.496 15.46C55.096 15.18 54.6093 15.04 54.036 15.04C53.4893 15.04 53.0026 15.18 52.576 15.46C52.1493 15.7267 51.8226 16.1267 51.596 16.66C51.3826 17.18 51.3026 17.8133 51.356 18.56C51.3026 19.2267 51.3893 19.82 51.616 20.34C51.856 20.8467 52.2026 21.24 52.656 21.52C53.1226 21.8 53.656 21.94 54.256 21.94C54.856 21.94 55.3626 21.8133 55.776 21.56C56.2026 21.3067 56.536 20.9667 56.776 20.54L58.896 21.58C58.6826 22.1 58.3493 22.56 57.896 22.96C57.4426 23.36 56.9026 23.6733 56.276 23.9C55.6626 24.1267 54.9826 24.24 54.236 24.24ZM65.4621 24.24C64.3021 24.24 63.2887 23.9667 62.4221 23.42C61.5687 22.86 60.9821 22.1067 60.6621 21.16L62.6221 20.22C62.9021 20.8333 63.2887 21.3133 63.7821 21.66C64.2887 22.0067 64.8487 22.18 65.4621 22.18C65.9421 22.18 66.3221 22.0733 66.6021 21.86C66.8821 21.6467 67.0221 21.3667 67.0221 21.02C67.0221 20.8067 66.9621 20.6333 66.8421 20.5C66.7354 20.3533 66.5821 20.2333 66.3821 20.14C66.1954 20.0333 65.9887 19.9467 65.7621 19.88L63.9821 19.38C63.0621 19.1133 62.3621 18.7067 61.8821 18.16C61.4154 17.6133 61.1821 16.9667 61.1821 16.22C61.1821 15.5533 61.3487 14.9733 61.6821 14.48C62.0287 13.9733 62.5021 13.58 63.1021 13.3C63.7154 13.02 64.4154 12.88 65.2021 12.88C66.2287 12.88 67.1354 13.1267 67.9221 13.62C68.7087 14.1133 69.2687 14.8067 69.6021 15.7L67.6021 16.64C67.4154 16.1467 67.1021 15.7533 66.6621 15.46C66.2221 15.1667 65.7287 15.02 65.1821 15.02C64.7421 15.02 64.3954 15.12 64.1421 15.32C63.8887 15.52 63.7621 15.78 63.7621 16.1C63.7621 16.3 63.8154 16.4733 63.9221 16.62C64.0287 16.7667 64.1754 16.8867 64.3621 16.98C64.5621 17.0733 64.7887 17.16 65.0421 17.24L66.7821 17.76C67.6754 18.0267 68.3621 18.4267 68.8421 18.96C69.3354 19.4933 69.5821 20.1467 69.5821 20.92C69.5821 21.5733 69.4087 22.1533 69.0621 22.66C68.7154 23.1533 68.2354 23.54 67.6221 23.82C67.0087 24.1 66.2887 24.24 65.4621 24.24ZM76.5555 24.12C75.3288 24.12 74.3755 23.7867 73.6955 23.12C73.0288 22.44 72.6955 21.4867 72.6955 20.26V15.46H70.8155V13.12H71.0155C71.5488 13.12 71.9622 12.98 72.2555 12.7C72.5488 12.42 72.6955 12.0133 72.6955 11.48V10.64H75.3155V13.12H77.8155V15.46H75.3155V20.12C75.3155 20.48 75.3755 20.7867 75.4955 21.04C75.6288 21.2933 75.8288 21.4867 76.0955 21.62C76.3755 21.7533 76.7288 21.82 77.1555 21.82C77.2488 21.82 77.3555 21.8133 77.4755 21.8C77.6088 21.7867 77.7355 21.7733 77.8555 21.76V24C77.6688 24.0267 77.4555 24.0533 77.2155 24.08C76.9755 24.1067 76.7555 24.12 76.5555 24.12ZM80.0772 24V9.1H86.3572C87.3439 9.1 88.1839 9.27333 88.8772 9.62C89.5839 9.95333 90.1239 10.4333 90.4972 11.06C90.8839 11.6733 91.0772 12.42 91.0772 13.3C91.0772 13.98 90.8905 14.62 90.5172 15.22C90.1572 15.8067 89.5772 16.2933 88.7772 16.68V15.42C89.5105 15.7 90.0905 16.0467 90.5172 16.46C90.9439 16.8733 91.2439 17.3333 91.4172 17.84C91.5905 18.3467 91.6772 18.88 91.6772 19.44C91.6772 20.8667 91.2039 21.9867 90.2572 22.8C89.3239 23.6 88.0239 24 86.3572 24H80.0772ZM82.7972 21.6H86.6372C87.3439 21.6 87.9039 21.4067 88.3172 21.02C88.7439 20.62 88.9572 20.0933 88.9572 19.44C88.9572 18.7867 88.7439 18.26 88.3172 17.86C87.9039 17.46 87.3439 17.26 86.6372 17.26H82.7972V21.6ZM82.7972 14.88H86.4972C87.0572 14.88 87.5039 14.72 87.8372 14.4C88.1705 14.0667 88.3372 13.64 88.3372 13.12C88.3372 12.6 88.1705 12.1867 87.8372 11.88C87.5039 11.5733 87.0572 11.42 86.4972 11.42H82.7972V14.88ZM99.0053 24.24C97.9387 24.24 96.9653 23.9933 96.0853 23.5C95.2187 23.0067 94.5253 22.3333 94.0053 21.48C93.4987 20.6267 93.2453 19.6533 93.2453 18.56C93.2453 17.4667 93.4987 16.4933 94.0053 15.64C94.5253 14.7867 95.2187 14.1133 96.0853 13.62C96.952 13.1267 97.9253 12.88 99.0053 12.88C100.072 12.88 101.039 13.1267 101.905 13.62C102.772 14.1133 103.459 14.7867 103.965 15.64C104.485 16.48 104.745 17.4533 104.745 18.56C104.745 19.6533 104.485 20.6267 103.965 21.48C103.445 22.3333 102.752 23.0067 101.885 23.5C101.019 23.9933 100.059 24.24 99.0053 24.24ZM99.0053 21.84C99.592 21.84 100.105 21.7 100.545 21.42C100.999 21.14 101.352 20.7533 101.605 20.26C101.872 19.7533 102.005 19.1867 102.005 18.56C102.005 17.92 101.872 17.36 101.605 16.88C101.352 16.3867 100.999 16 100.545 15.72C100.105 15.4267 99.592 15.28 99.0053 15.28C98.4053 15.28 97.8787 15.4267 97.4253 15.72C96.972 16 96.612 16.3867 96.3453 16.88C96.092 17.36 95.9653 17.92 95.9653 18.56C95.9653 19.1867 96.092 19.7533 96.3453 20.26C96.612 20.7533 96.972 21.14 97.4253 21.42C97.8787 21.7 98.4053 21.84 99.0053 21.84ZM112.052 24.24C110.986 24.24 110.012 23.9933 109.132 23.5C108.266 23.0067 107.572 22.3333 107.052 21.48C106.546 20.6267 106.292 19.6533 106.292 18.56C106.292 17.4667 106.546 16.4933 107.052 15.64C107.572 14.7867 108.266 14.1133 109.132 13.62C109.999 13.1267 110.972 12.88 112.052 12.88C113.119 12.88 114.086 13.1267 114.952 13.62C115.819 14.1133 116.506 14.7867 117.012 15.64C117.532 16.48 117.792 17.4533 117.792 18.56C117.792 19.6533 117.532 20.6267 117.012 21.48C116.492 22.3333 115.799 23.0067 114.932 23.5C114.066 23.9933 113.106 24.24 112.052 24.24ZM112.052 21.84C112.639 21.84 113.152 21.7 113.592 21.42C114.046 21.14 114.399 20.7533 114.652 20.26C114.919 19.7533 115.052 19.1867 115.052 18.56C115.052 17.92 114.919 17.36 114.652 16.88C114.399 16.3867 114.046 16 113.592 15.72C113.152 15.4267 112.639 15.28 112.052 15.28C111.452 15.28 110.926 15.4267 110.472 15.72C110.019 16 109.659 16.3867 109.392 16.88C109.139 17.36 109.012 17.92 109.012 18.56C109.012 19.1867 109.139 19.7533 109.392 20.26C109.659 20.7533 110.019 21.14 110.472 21.42C110.926 21.7 111.452 21.84 112.052 21.84ZM119.779 24V8.86H122.399V18.78L121.399 18.48L126.519 13.12H129.779L125.759 17.5L129.859 24H126.859L123.299 18.36L124.859 18.04L121.579 21.56L122.399 19.96V24H119.779ZM131.322 24V13.12H133.942V24H131.322ZM131.322 11.9V9.1H133.942V11.9H131.322ZM136.361 24V13.12H138.821V15.26L138.621 14.88C138.874 14.2267 139.288 13.7333 139.861 13.4C140.448 13.0533 141.128 12.88 141.901 12.88C142.701 12.88 143.408 13.0533 144.021 13.4C144.648 13.7467 145.134 14.2333 145.481 14.86C145.828 15.4733 146.001 16.1867 146.001 17V24H143.381V17.62C143.381 17.14 143.288 16.7267 143.101 16.38C142.914 16.0333 142.654 15.7667 142.321 15.58C142.001 15.38 141.621 15.28 141.181 15.28C140.754 15.28 140.374 15.38 140.041 15.58C139.708 15.7667 139.448 16.0333 139.261 16.38C139.074 16.7267 138.981 17.14 138.981 17.62V24H136.361ZM153.497 28.4C152.683 28.4 151.93 28.2667 151.237 28C150.543 27.7333 149.943 27.36 149.437 26.88C148.943 26.4133 148.583 25.86 148.357 25.22L150.797 24.3C150.957 24.8067 151.27 25.2133 151.737 25.52C152.217 25.84 152.803 26 153.497 26C154.03 26 154.497 25.9 154.897 25.7C155.31 25.5 155.63 25.2067 155.857 24.82C156.083 24.4467 156.197 23.9933 156.197 23.46V20.98L156.697 21.58C156.323 22.2333 155.823 22.7267 155.197 23.06C154.57 23.3933 153.857 23.56 153.057 23.56C152.043 23.56 151.137 23.3267 150.337 22.86C149.537 22.3933 148.91 21.7533 148.457 20.94C148.003 20.1267 147.777 19.2133 147.777 18.2C147.777 17.1733 148.003 16.26 148.457 15.46C148.91 14.66 149.53 14.0333 150.317 13.58C151.103 13.1133 151.997 12.88 152.997 12.88C153.81 12.88 154.523 13.0533 155.137 13.4C155.763 13.7333 156.283 14.22 156.697 14.86L156.337 15.52V13.12H158.817V23.46C158.817 24.4067 158.583 25.2533 158.117 26C157.663 26.7467 157.037 27.3333 156.237 27.76C155.45 28.1867 154.537 28.4 153.497 28.4ZM153.377 21.14C153.937 21.14 154.423 21.02 154.837 20.78C155.263 20.5267 155.597 20.18 155.837 19.74C156.077 19.3 156.197 18.7933 156.197 18.22C156.197 17.66 156.07 17.16 155.817 16.72C155.577 16.2667 155.243 15.9133 154.817 15.66C154.403 15.4067 153.923 15.28 153.377 15.28C152.83 15.28 152.337 15.4067 151.897 15.66C151.457 15.9133 151.11 16.2667 150.857 16.72C150.617 17.16 150.497 17.66 150.497 18.22C150.497 18.78 150.617 19.28 150.857 19.72C151.11 20.16 151.45 20.5067 151.877 20.76C152.317 21.0133 152.817 21.14 153.377 21.14ZM165.403 24.24C164.243 24.24 163.23 23.9667 162.363 23.42C161.51 22.86 160.923 22.1067 160.603 21.16L162.563 20.22C162.843 20.8333 163.23 21.3133 163.723 21.66C164.23 22.0067 164.79 22.18 165.403 22.18C165.883 22.18 166.263 22.0733 166.543 21.86C166.823 21.6467 166.963 21.3667 166.963 21.02C166.963 20.8067 166.903 20.6333 166.783 20.5C166.677 20.3533 166.523 20.2333 166.323 20.14C166.137 20.0333 165.93 19.9467 165.703 19.88L163.923 19.38C163.003 19.1133 162.303 18.7067 161.823 18.16C161.357 17.6133 161.123 16.9667 161.123 16.22C161.123 15.5533 161.29 14.9733 161.623 14.48C161.97 13.9733 162.443 13.58 163.043 13.3C163.657 13.02 164.357 12.88 165.143 12.88C166.17 12.88 167.077 13.1267 167.863 13.62C168.65 14.1133 169.21 14.8067 169.543 15.7L167.543 16.64C167.357 16.1467 167.043 15.7533 166.603 15.46C166.163 15.1667 165.67 15.02 165.123 15.02C164.683 15.02 164.337 15.12 164.083 15.32C163.83 15.52 163.703 15.78 163.703 16.1C163.703 16.3 163.757 16.4733 163.863 16.62C163.97 16.7667 164.117 16.8867 164.303 16.98C164.503 17.0733 164.73 17.16 164.983 17.24L166.723 17.76C167.617 18.0267 168.303 18.4267 168.783 18.96C169.277 19.4933 169.523 20.1467 169.523 20.92C169.523 21.5733 169.35 22.1533 169.003 22.66C168.657 23.1533 168.177 23.54 167.563 23.82C166.95 24.1 166.23 24.24 165.403 24.24Z" fill="#0E0854"/>
<g clip-path="url(#clip0_29293_11400)">
<path d="M25.3338 11.6134L18.2231 6.08277C17.5991 5.59731 16.8311 5.33374 16.0404 5.33374C15.2498 5.33374 14.4818 5.59731 13.8578 6.08277L6.74578 11.6134C6.31837 11.9458 5.97257 12.3715 5.73479 12.8579C5.497 13.3443 5.37352 13.8787 5.37378 14.4201V24.0201C5.37378 24.7273 5.65473 25.4056 6.15483 25.9057C6.65493 26.4058 7.3332 26.6868 8.04045 26.6868H24.0404C24.7477 26.6868 25.426 26.4058 25.9261 25.9057C26.4262 25.4056 26.7071 24.7273 26.7071 24.0201V14.4201C26.7071 13.3228 26.2004 12.2868 25.3338 11.6134Z" fill="#7065F0" stroke="#7065F0" stroke-width="3" stroke-linecap="round" stroke-linejoin="round"/>
<path d="M21.3339 20C18.3872 21.7773 13.6112 21.7773 10.6672 20" stroke="#F9F9F9" stroke-width="3" stroke-linecap="round" stroke-linejoin="round"/>
</g>
<defs>
<clipPath id="clip0_29293_11400">
<rect width="32" height="32" fill="white" transform="translate(0.000488281)"/>
</clipPath>
</defs>
</svg>
