<svg width="32" height="32" viewBox="0 0 32 32" fill="none" xmlns="http://www.w3.org/2000/svg">
<g clip-path="url(#clip0_29293_11402)">
<path d="M25.3338 11.6134L18.2231 6.08277C17.5991 5.59731 16.8311 5.33374 16.0404 5.33374C15.2498 5.33374 14.4818 5.59731 13.8578 6.08277L6.74578 11.6134C6.31837 11.9458 5.97257 12.3715 5.73479 12.8579C5.497 13.3443 5.37352 13.8787 5.37378 14.4201V24.0201C5.37378 24.7273 5.65473 25.4056 6.15483 25.9057C6.65493 26.4058 7.3332 26.6868 8.04045 26.6868H24.0404C24.7477 26.6868 25.426 26.4058 25.9261 25.9057C26.4262 25.4056 26.7071 24.7273 26.7071 24.0201V14.4201C26.7071 13.3228 26.2004 12.2868 25.3338 11.6134Z" fill="#7065F0" stroke="#7065F0" stroke-width="3" stroke-linecap="round" stroke-linejoin="round"/>
<path d="M21.3339 20C18.3872 21.7773 13.6112 21.7773 10.6672 20" stroke="#F9F9F9" stroke-width="3" stroke-linecap="round" stroke-linejoin="round"/>
</g>
<defs>
<clipPath id="clip0_29293_11402">
<rect width="32" height="32" fill="white" transform="translate(0.000488281)"/>
</clipPath>
</defs>
</svg>
